<?xml version="1.0" encoding="UTF-8"?> <svg xmlns="http://www.w3.org/2000/svg" xmlns:xlink="http://www.w3.org/1999/xlink" viewBox="0 0 49.13 51.6"> <defs> <style>.cls-1{fill:none;}.cls-2{fill:#fff;}.cls-3{clip-path:url(#clip-path);}</style> <clipPath id="clip-path" transform="translate(-2.81)"> <rect class="cls-1" width="54.11" height="53.32"></rect> </clipPath> </defs> <title>Ресурс 28</title> <g id="Слой_2" data-name="Слой 2"> <g id="Слой_1-2" data-name="Слой 1"> <path class="cls-2" d="M6.77,46.92l.19.37a.69.69,0,0,1-.29.18,1.2,1.2,0,0,1-.41.07,1.13,1.13,0,0,1-.82-.31,1.09,1.09,0,0,1-.32-.82,1.13,1.13,0,0,1,.3-.81,1.1,1.1,0,0,1,.84-.32,1.13,1.13,0,0,1,.39.06.77.77,0,0,1,.28.16l-.22.37a.85.85,0,0,0-.44-.13.59.59,0,0,0-.44.17.66.66,0,0,0-.17.48.63.63,0,0,0,.66.66A.77.77,0,0,0,6.77,46.92Z" transform="translate(-2.81)"></path> <path class="cls-2" d="M7.3,47.5V45.33H8.59v.47H7.8v.38h.7v.47H7.8V47h.82v.47Z" transform="translate(-2.81)"></path> <path class="cls-2" d="M8.84,45.8v-.47h1.8v.47H10V47.5h-.5V45.8Z" transform="translate(-2.81)"></path> <path class="cls-2" d="M11.45,45.33V46h.19a.87.87,0,0,1,.62.19.71.71,0,0,1,.2.54.72.72,0,0,1-.24.57,1,1,0,0,1-.69.21h-.58V45.33Zm.15,1.13-.15,0V47h.15q.34,0,.34-.3T11.59,46.46Z" transform="translate(-2.81)"></path> <path class="cls-2" d="M13.49,47.5V45.33H14V47h.75V45.33h.5V47h.29v.84h-.47V47.5Z" transform="translate(-2.81)"></path> <path class="cls-2" d="M15.86,47.5V45.33h1.29v.47h-.79v.38h.7v.47h-.7V47h.82v.47Z" transform="translate(-2.81)"></path> <path class="cls-2" d="M18.93,47.5v-.88h-.79v.88h-.5V45.33h.5v.83h.79v-.83h.5V47.5Z" transform="translate(-2.81)"></path> <path class="cls-2" d="M19.74,45.8v-.47h1.8v.47h-.65V47.5h-.5V45.8Z" transform="translate(-2.81)"></path> <path class="cls-2" d="M22.35,47.5h-.5V45.33h.66a.93.93,0,0,1,.67.2.73.73,0,0,1,0,1,.81.81,0,0,1-.58.21h-.24Zm.22-1.71h-.22v.5l.23,0a.34.34,0,0,0,.2-.06.23.23,0,0,0,.09-.2Q22.87,45.79,22.57,45.79Z" transform="translate(-2.81)"></path> <path class="cls-2" d="M23.64,46.42a1.09,1.09,0,0,1,.32-.8,1.13,1.13,0,0,1,.83-.32,1.16,1.16,0,0,1,.83.31,1.17,1.17,0,0,1,0,1.62,1.14,1.14,0,0,1-.83.32,1.16,1.16,0,0,1-.83-.31A1.07,1.07,0,0,1,23.64,46.42Zm.53,0a.65.65,0,0,0,.18.47.59.59,0,0,0,.44.19.59.59,0,0,0,.46-.18.69.69,0,0,0,.16-.47.65.65,0,0,0-.18-.47.64.64,0,0,0-.9,0A.65.65,0,0,0,24.17,46.42Z" transform="translate(-2.81)"></path> <path class="cls-2" d="M26.36,47.5V45.34l.66,0a.85.85,0,0,1,.55.15.48.48,0,0,1,.18.39.54.54,0,0,1-.25.48h0a.47.47,0,0,1,.22.18.55.55,0,0,1,.09.32.58.58,0,0,1-.23.5,1,1,0,0,1-.6.17ZM27,45.78h-.16v.39H27q.23,0,.23-.21a.17.17,0,0,0-.07-.14A.28.28,0,0,0,27,45.78Zm0,.84h-.19V47l.17,0c.19,0,.29-.08.29-.23S27.22,46.63,27,46.63Z" transform="translate(-2.81)"></path> <path class="cls-2" d="M28.89,47.5V45.33h.5V47h.75V45.33h.5V47h.29v.84h-.47V47.5Z" transform="translate(-2.81)"></path> <path class="cls-2" d="M31.7,47.5h-.43V45.33h.5v1.35l1-1.35h.43V47.5h-.5V46.15Z" transform="translate(-2.81)"></path> <path class="cls-2" d="M34.5,47.53v-.29a1.08,1.08,0,0,1-.7-.23.77.77,0,0,1-.26-.62.76.76,0,0,1,.26-.62,1.1,1.1,0,0,1,.7-.23v-.23H35v.23a1.09,1.09,0,0,1,.7.24.85.85,0,0,1,0,1.24,1.08,1.08,0,0,1-.71.23v.29Zm-.44-1.14q0,.39.44.39V46a.47.47,0,0,0-.33.11A.38.38,0,0,0,34.06,46.39Zm1.38,0a.39.39,0,0,0-.11-.28A.47.47,0,0,0,35,46v.79a.5.5,0,0,0,.34-.1A.39.39,0,0,0,35.44,46.39Z" transform="translate(-2.81)"></path> <path class="cls-2" d="M36.84,47.5h-.5V45.33H37a.93.93,0,0,1,.67.2.73.73,0,0,1,0,1,.81.81,0,0,1-.58.21h-.24Zm.22-1.71h-.22v.5l.23,0a.34.34,0,0,0,.2-.06.23.23,0,0,0,.09-.2Q37.35,45.79,37.05,45.79Z" transform="translate(-2.81)"></path> <path class="cls-2" d="M38.13,46.42a1.09,1.09,0,0,1,.32-.8,1.13,1.13,0,0,1,.83-.32,1.16,1.16,0,0,1,.83.31,1.17,1.17,0,0,1,0,1.62,1.14,1.14,0,0,1-.83.32,1.16,1.16,0,0,1-.83-.31A1.07,1.07,0,0,1,38.13,46.42Zm.53,0a.65.65,0,0,0,.18.47.59.59,0,0,0,.44.19.59.59,0,0,0,.46-.18.69.69,0,0,0,.16-.47.65.65,0,0,0-.18-.47.64.64,0,0,0-.9,0A.65.65,0,0,0,38.66,46.42Z" transform="translate(-2.81)"></path> <path class="cls-2" d="M40.84,47.5V45.34l.66,0a.85.85,0,0,1,.55.15.48.48,0,0,1,.18.39.54.54,0,0,1-.25.48h0a.47.47,0,0,1,.22.18.55.55,0,0,1,.09.32.58.58,0,0,1-.23.5,1,1,0,0,1-.6.17Zm.65-1.71h-.16v.39h.16q.23,0,.23-.21a.17.17,0,0,0-.07-.14A.28.28,0,0,0,41.5,45.78Zm0,.84h-.19V47l.17,0c.19,0,.29-.08.29-.23S41.71,46.63,41.53,46.63Z" transform="translate(-2.81)"></path> <path class="cls-2" d="M42.6,46.42a1.09,1.09,0,0,1,.32-.8,1.13,1.13,0,0,1,.83-.32,1.16,1.16,0,0,1,.83.31,1.17,1.17,0,0,1,0,1.62,1.14,1.14,0,0,1-.83.32,1.16,1.16,0,0,1-.83-.31A1.07,1.07,0,0,1,42.6,46.42Zm.53,0a.65.65,0,0,0,.18.47.59.59,0,0,0,.44.19.59.59,0,0,0,.46-.18.69.69,0,0,0,.16-.47.65.65,0,0,0-.18-.47.64.64,0,0,0-.9,0A.65.65,0,0,0,43.13,46.42Z" transform="translate(-2.81)"></path> <path class="cls-2" d="M45.32,47.5V45.33h1.24v.47h-.75V47.5Z" transform="translate(-2.81)"></path> <path class="cls-2" d="M46.67,46.42a1.09,1.09,0,0,1,.32-.8,1.13,1.13,0,0,1,.83-.32,1.16,1.16,0,0,1,.83.31,1.17,1.17,0,0,1,0,1.62,1.14,1.14,0,0,1-.83.32,1.16,1.16,0,0,1-.83-.31A1.07,1.07,0,0,1,46.67,46.42Zm.53,0a.65.65,0,0,0,.18.47.59.59,0,0,0,.44.19.59.59,0,0,0,.46-.18.69.69,0,0,0,.16-.47.65.65,0,0,0-.18-.47.64.64,0,0,0-.9,0A.65.65,0,0,0,47.2,46.42Z" transform="translate(-2.81)"></path> <g class="cls-3"> <path class="cls-2" d="M2.81,50.14a1.09,1.09,0,0,1,.32-.8A1.13,1.13,0,0,1,4,49a1.16,1.16,0,0,1,.83.31,1.17,1.17,0,0,1,0,1.62,1.14,1.14,0,0,1-.83.32A1.16,1.16,0,0,1,3.13,51,1.07,1.07,0,0,1,2.81,50.14Zm.53,0a.65.65,0,0,0,.18.47A.59.59,0,0,0,4,50.8a.59.59,0,0,0,.46-.18.69.69,0,0,0,.16-.47.65.65,0,0,0-.18-.47.64.64,0,0,0-.9,0A.65.65,0,0,0,3.33,50.14Z" transform="translate(-2.81)"></path> <path class="cls-2" d="M5.52,51.23V49.06H6.83v.47H6v.34l.25,0a.71.71,0,0,1,.51.18.64.64,0,0,1,.19.49.67.67,0,0,1-.22.53.92.92,0,0,1-.62.19H5.52Zm.7-.92-.21,0v.43l.19,0q.27,0,.27-.22a.25.25,0,0,0-.06-.17A.24.24,0,0,0,6.22,50.31Z" transform="translate(-2.81)"></path> <path class="cls-2" d="M7.93,51.23h-.5V49.06H8.1a.93.93,0,0,1,.67.2.73.73,0,0,1,0,1,.81.81,0,0,1-.58.21H7.93Zm.22-1.71H7.93V50l.23,0a.34.34,0,0,0,.2-.06.23.23,0,0,0,.09-.2Q8.45,49.51,8.15,49.51Z" transform="translate(-2.81)"></path> <path class="cls-2" d="M8.9,51.23l.9-2.17h.44l.9,2.17h-.53l-.18-.46H9.58l-.18.46ZM10,49.69l-.25.61h.49Z" transform="translate(-2.81)"></path> <path class="cls-2" d="M12,51.27a.87.87,0,0,1-.78-.39l.27-.34a.67.67,0,0,0,.49.26.41.41,0,0,0,.21-.05.2.2,0,0,0,0-.34.44.44,0,0,0-.25-.06h-.2v-.47H12a.33.33,0,0,0,.19-.05.17.17,0,0,0,.08-.15.18.18,0,0,0-.07-.15.27.27,0,0,0-.17-.05.47.47,0,0,0-.39.23l-.29-.34a.8.8,0,0,1,.31-.26,1,1,0,0,1,.43-.1.72.72,0,0,1,.49.16.57.57,0,0,1,.18.45.54.54,0,0,1-.27.46h0a.49.49,0,0,1,.36.52.56.56,0,0,1-.24.47A.88.88,0,0,1,12,51.27Z" transform="translate(-2.81)"></path> <path class="cls-2" d="M13.12,50.14a1.09,1.09,0,0,1,.32-.8,1.13,1.13,0,0,1,.83-.32,1.16,1.16,0,0,1,.83.31,1.17,1.17,0,0,1,0,1.62,1.14,1.14,0,0,1-.83.32,1.16,1.16,0,0,1-.83-.31A1.07,1.07,0,0,1,13.12,50.14Zm.53,0a.65.65,0,0,0,.18.47.59.59,0,0,0,.44.19.59.59,0,0,0,.46-.18.69.69,0,0,0,.16-.47.65.65,0,0,0-.18-.47.64.64,0,0,0-.9,0A.65.65,0,0,0,13.65,50.14Z" transform="translate(-2.81)"></path> <path class="cls-2" d="M15.83,51.22V49.06l.66,0a.85.85,0,0,1,.55.15.48.48,0,0,1,.18.39.54.54,0,0,1-.25.48h0a.47.47,0,0,1,.22.18.55.55,0,0,1,.09.32.58.58,0,0,1-.23.5,1,1,0,0,1-.6.17Zm.65-1.71h-.16v.39h.16q.23,0,.23-.21a.17.17,0,0,0-.07-.14A.28.28,0,0,0,16.48,49.51Zm0,.84h-.19v.41l.17,0c.19,0,.29-.08.29-.23S16.7,50.35,16.52,50.35Z" transform="translate(-2.81)"></path> <path class="cls-2" d="M17.47,51.23l.9-2.17h.44l.9,2.17h-.53L19,50.77h-.86l-.18.46Zm1.11-1.54-.25.61h.49Z" transform="translate(-2.81)"></path> <path class="cls-2" d="M21.28,51.23v-.88h-.79v.88H20V49.06h.5v.83h.79v-.83h.5v2.17Z" transform="translate(-2.81)"></path> <path class="cls-2" d="M22.77,51.23h-.43V49.06h.5v1.35l1-1.35h.43v2.17h-.5V49.88Z" transform="translate(-2.81)"></path> <path class="cls-2" d="M25.73,51.23v-.7h-.22l-.41.7h-.56l.51-.81a.65.65,0,0,1-.34-.59.75.75,0,0,1,.23-.56,1,1,0,0,1,.7-.22h.58v2.17Zm-.26-1.16h.26v-.54h-.18a.32.32,0,0,0-.22.08.26.26,0,0,0-.09.21.25.25,0,0,0,.07.18A.32.32,0,0,0,25.47,50.06Z" transform="translate(-2.81)"></path> <path class="cls-2" d="M27.16,51.6v-.84h.23a1.52,1.52,0,0,0,.19-.46,3.45,3.45,0,0,0,.12-.81l0-.43h1.42v1.71h.3v.84H29v-.37H27.63v.37Zm1-1.71a3,3,0,0,1-.1.53,1.2,1.2,0,0,1-.13.34h.71V49.52h-.44Z" transform="translate(-2.81)"></path> <path class="cls-2" d="M29.78,51.23V49.06h1.29v.47h-.79v.38H31v.47h-.7v.39h.82v.47Z" transform="translate(-2.81)"></path> <path class="cls-2" d="M31.32,49.52v-.47h1.8v.47h-.65v1.71H32V49.52Z" transform="translate(-2.81)"></path> <path class="cls-2" d="M33.43,51.23V49.06h1.29v.47h-.79v.38h.7v.47h-.7v.39h.82v.47Z" transform="translate(-2.81)"></path> <path class="cls-2" d="M35.65,51.23h-.43V49.06h.5v1.35l1-1.35h.43v2.17h-.5V49.88Zm-.09-2.73H36a.15.15,0,0,0,0,.12.24.24,0,0,0,.15,0,.23.23,0,0,0,.14,0,.15.15,0,0,0,0-.12h.47a.42.42,0,0,1-.18.36.75.75,0,0,1-.47.14.77.77,0,0,1-.48-.14A.43.43,0,0,1,35.56,48.5Z" transform="translate(-2.81)"></path> <path class="cls-2" d="M38.72,51.19l-.62-.73h0l.64-.73L39,50l-.4.47.4.47Zm.71,0-.62-.73h0l.64-.73.3.27-.4.47.4.47Z" transform="translate(-2.81)"></path> <path class="cls-2" d="M40.16,51.23V49.06h.5v2.17Z" transform="translate(-2.81)"></path> <path class="cls-2" d="M41,49.52v-.47h1.8v.47h-.65v1.71h-.5V49.52Z" transform="translate(-2.81)"></path> <path class="cls-2" d="M43,50.35v-.44h.82v.44Z" transform="translate(-2.81)"></path> <path class="cls-2" d="M44.24,51.23V49.06h.5V50l.71-.95H46l-.82,1,.88,1.17h-.63l-.74-1v1Z" transform="translate(-2.81)"></path> <path class="cls-2" d="M48.25,49.06l-.73,1.66a1.05,1.05,0,0,1-.27.39.56.56,0,0,1-.37.13l-.19,0a.43.43,0,0,1-.14-.07l.17-.42a.27.27,0,0,0,.15.05.16.16,0,0,0,.16-.09l0-.06-.93-1.56h.56l.61,1.06.44-1.06Z" transform="translate(-2.81)"></path> <path class="cls-2" d="M48.56,51.23V49.06h1.31v.47h-.81v.34l.25,0a.71.71,0,0,1,.51.18.64.64,0,0,1,.19.49.67.67,0,0,1-.22.53.92.92,0,0,1-.62.19h-.61Zm.7-.92-.21,0v.43l.19,0q.27,0,.27-.22a.25.25,0,0,0-.06-.17A.24.24,0,0,0,49.26,50.31Z" transform="translate(-2.81)"></path> <path class="cls-2" d="M51.23,50.46l-.62.73-.32-.26.4-.47-.4-.47.3-.27.64.73Zm.71,0-.62.73L51,50.92l.4-.47L51,50l.3-.27.64.73Z" transform="translate(-2.81)"></path> </g> <g class="cls-3"> <path class="cls-2" d="M29.21,2.94a.54.54,0,0,0-.49-.23H26c-.27,0-.42.08-.49.23a4,4,0,0,0-.33.72c0,.15.22.23.49.23H29c.27,0,.48-.11.49-.23a3.51,3.51,0,0,0-.32-.72m-1.53.8H27c-.06,0-.11,0-.1-.05a.87.87,0,0,1,.07-.16s0,0,.1,0h.59a.12.12,0,0,1,.1,0,.69.69,0,0,1,.07.16s0,.05-.1.05" transform="translate(-2.81)"></path> <path class="cls-2" d="M28.72,0H26a.49.49,0,0,0-.49.49V2a.49.49,0,0,0,.49.48h2.75A.49.49,0,0,0,29.21,2V.49A.49.49,0,0,0,28.72,0M26,.59h.83v.9H26Zm2.61,1.28H26.06V1.7h2.59Zm0-.37H27.1V1.33h1.55Zm0-.37H27.1V1h1.55Zm0-.37H27.1V.59h1.55Z" transform="translate(-2.81)"></path> <path class="cls-2" d="M29.21,23.28a.54.54,0,0,0-.49-.23H26c-.27,0-.42.08-.49.23a4,4,0,0,0-.33.72c0,.15.22.23.49.23H29c.27,0,.48-.11.49-.23a3.51,3.51,0,0,0-.32-.72m-1.53.8H27c-.06,0-.11,0-.1-.05a.87.87,0,0,1,.07-.16s0,0,.1,0h.59a.12.12,0,0,1,.1,0,.69.69,0,0,1,.07.16s0,.05-.1.05" transform="translate(-2.81)"></path> <path class="cls-2" d="M28.72,20.34H26a.49.49,0,0,0-.49.48v1.54a.49.49,0,0,0,.49.49h2.75a.49.49,0,0,0,.49-.49V20.83a.49.49,0,0,0-.49-.48M26,20.93h.83v.9H26Zm2.61,1.28H26.06V22h2.59Zm0-.37H27.1v-.17h1.55Zm0-.37H27.1V21.3h1.55Zm0-.37H27.1v-.17h1.55Z" transform="translate(-2.81)"></path> <path class="cls-2" d="M29.21,41.82a.54.54,0,0,0-.49-.23H26c-.27,0-.42.08-.49.23a4,4,0,0,0-.33.72c0,.15.22.23.49.23H29c.27,0,.48-.11.49-.23a3.51,3.51,0,0,0-.32-.72m-1.53.8H27c-.06,0-.11,0-.1-.05a.87.87,0,0,1,.07-.16s0,0,.1,0h.59a.12.12,0,0,1,.1,0,.69.69,0,0,1,.07.16s0,.05-.1.05" transform="translate(-2.81)"></path> <path class="cls-2" d="M28.72,38.88H26a.49.49,0,0,0-.49.49V40.9a.49.49,0,0,0,.49.49h2.75a.49.49,0,0,0,.49-.49V39.36a.49.49,0,0,0-.49-.49M26,39.47h.83v.9H26Zm2.61,1.28H26.06v-.17h2.59Zm0-.37H27.1v-.17h1.55Zm0-.37H27.1v-.17h1.55Zm0-.37H27.1v-.17h1.55Z" transform="translate(-2.81)"></path> <path class="cls-2" d="M11.72,12.93a.54.54,0,0,0-.49-.23H8.49c-.27,0-.42.08-.49.23a4,4,0,0,0-.33.72c0,.15.22.23.49.23h3.39c.27,0,.48-.11.49-.23a3.51,3.51,0,0,0-.32-.72m-1.53.8H9.46c-.06,0-.11,0-.1-.05a.87.87,0,0,1,.07-.16s0,0,.1,0h.59a.12.12,0,0,1,.1,0,.69.69,0,0,1,.07.16s0,.05-.1.05" transform="translate(-2.81)"></path> <path class="cls-2" d="M11.23,10H8.49a.49.49,0,0,0-.49.49V12a.49.49,0,0,0,.49.49h2.74a.49.49,0,0,0,.49-.49V10.48a.49.49,0,0,0-.49-.49m-2.68.59h.83v.9H8.55Zm2.61,1.28H8.57V11.7h2.6Zm0-.37H9.61v-.17h1.55Zm0-.37H9.61V11h1.55Zm0-.37H9.61v-.17h1.55Z" transform="translate(-2.81)"></path> <path class="cls-2" d="M46.41,12.93a.54.54,0,0,0-.49-.23H43.18c-.27,0-.42.08-.49.23a4,4,0,0,0-.33.72c0,.15.22.23.49.23h3.39c.27,0,.48-.11.49-.23a3.51,3.51,0,0,0-.32-.72m-1.53.8h-.73c-.06,0-.11,0-.1-.05a.87.87,0,0,1,.07-.16s0,0,.1,0h.59a.12.12,0,0,1,.1,0,.69.69,0,0,1,.07.16s0,.05-.1.05" transform="translate(-2.81)"></path> <path class="cls-2" d="M45.92,10H43.18a.49.49,0,0,0-.49.49V12a.49.49,0,0,0,.49.49h2.74a.49.49,0,0,0,.49-.49V10.48a.49.49,0,0,0-.49-.49m-2.68.59h.83v.9h-.83Zm2.61,1.28h-2.6V11.7h2.6Zm0-.37H44.3v-.17h1.55Zm0-.37H44.3V11h1.55Zm0-.37H44.3v-.17h1.55Z" transform="translate(-2.81)"></path> <path class="cls-2" d="M11.72,31.27a.54.54,0,0,0-.49-.23H8.49c-.27,0-.42.08-.49.23a4,4,0,0,0-.33.72c0,.15.22.23.49.23h3.39c.27,0,.48-.11.49-.23a3.51,3.51,0,0,0-.32-.72m-1.53.8H9.46c-.06,0-.11,0-.1-.05a.87.87,0,0,1,.07-.16s0,0,.1,0h.59a.12.12,0,0,1,.1,0,.69.69,0,0,1,.07.16s0,.05-.1.05" transform="translate(-2.81)"></path> <path class="cls-2" d="M11.23,28.34H8.49a.49.49,0,0,0-.49.48v1.54a.49.49,0,0,0,.49.49h2.74a.49.49,0,0,0,.49-.49V28.82a.49.49,0,0,0-.49-.48m-2.68.59h.83v.9H8.55Zm2.61,1.28H8.57V30h2.6Zm0-.37H9.61v-.17h1.55Zm0-.37H9.61V29.3h1.55Zm0-.37H9.61v-.17h1.55Z" transform="translate(-2.81)"></path> <path class="cls-2" d="M46.44,31.27A.54.54,0,0,0,46,31H43.21c-.27,0-.42.08-.49.23a4,4,0,0,0-.33.72c0,.15.22.23.49.23h3.39c.27,0,.48-.11.49-.23a3.51,3.51,0,0,0-.32-.72m-1.53.8h-.73c-.06,0-.11,0-.1-.05a.87.87,0,0,1,.07-.16s0,0,.1,0h.59a.12.12,0,0,1,.1,0A.69.69,0,0,1,45,32s0,.05-.1.05" transform="translate(-2.81)"></path> <path class="cls-2" d="M46,28.34H43.21a.49.49,0,0,0-.49.48v1.54a.49.49,0,0,0,.49.49H46a.49.49,0,0,0,.48-.49V28.82a.49.49,0,0,0-.48-.48m-2.68.59h.83v.9h-.83Zm2.61,1.28H43.29V30h2.59Zm0-.37H44.33v-.17h1.55Zm0-.37H44.33V29.3h1.55Zm0-.37H44.33v-.17h1.55Z" transform="translate(-2.81)"></path> <rect class="cls-2" x="6.79" y="14.93" width="0.38" height="12.95"></rect> <rect class="cls-2" x="41.69" y="14.32" width="0.38" height="13.56"></rect> <rect class="cls-2" x="24.41" y="5.62" width="0.38" height="13.56"></rect> <rect class="cls-2" x="35.74" y="0.39" width="0.38" height="11.76" transform="translate(9.88 34.37) rotate(-60.29)"></rect> <rect class="cls-2" x="17.86" y="30.31" width="0.38" height="13.28" transform="translate(-25.79 34.32) rotate(-60.29)"></rect> <rect class="cls-2" x="35.91" y="21.16" width="0.38" height="11.68" transform="translate(-8.05 44.98) rotate(-60.29)"></rect> <polygon class="cls-2" points="39.1 33.69 39.29 34.02 27.95 40.54 27.76 40.21 39.1 33.69"></polygon> <polygon class="cls-2" points="21.23 23.93 21.42 24.26 10.07 30.78 9.88 30.45 21.23 23.93"></polygon> <polygon class="cls-2" points="20.79 3.2 20.98 3.53 10.43 9.59 10.24 9.26 20.79 3.2"></polygon> <path class="cls-2" d="M25.36,35.64c0,.3-.31.72-.85,1.06a4,4,0,0,1-4.05.11c-1.1-.65-1.27-1.6.1-2.44a3.5,3.5,0,0,1,1.61-.51l.25.64a2.66,2.66,0,0,0-1,.36c-.61.37-.71.92,0,1.37a2.37,2.37,0,0,0,2.35-.05,1.24,1.24,0,0,0,.58-.69Z" transform="translate(-2.81)"></path> <path class="cls-2" d="M28.07,32.52c1.17.69.87,1.44,0,2a3.24,3.24,0,0,1-3.41.07l-2.2-1.3.9-.56,2,1.19a1.71,1.71,0,0,0,1.87.11c.55-.34.33-.67-.29-1l-2.07-1.22.91-.56Z" transform="translate(-2.81)"></path> <path class="cls-2" d="M26.8,30.61c.21-.14.74-.49,1.17-.76a2.19,2.19,0,0,1,2.28-.26c.4.23.51.49.4.78h0a1.86,1.86,0,0,1,1.44.17c.8.48.53,1.09-.33,1.62-.38.23-.92.55-1.17.68Zm1.71-.08.69.41.3-.18c.23-.14.33-.31,0-.48a.8.8,0,0,0-.78.06,2.55,2.55,0,0,0-.26.19m1.46.86.71.42a1.68,1.68,0,0,0,.34-.17c.35-.22.38-.41.12-.56a.78.78,0,0,0-.82.09Z" transform="translate(-2.81)"></path> <polygon class="cls-2" points="27.48 28.46 29.83 27.01 30.65 27.5 29.2 28.38 29.87 28.78 31.15 28 31.96 28.48 30.69 29.27 31.39 29.68 32.88 28.75 33.7 29.24 31.3 30.72 27.48 28.46"></polygon> <polygon class="cls-2" points="16.58 12.63 16.58 9.2 13.55 10.9 16.58 12.63"></polygon> <polygon class="cls-2" points="13.28 11.27 13.28 25.46 16.58 23.61 16.58 13.16 13.28 11.27"></polygon> <polygon class="cls-2" points="31.54 23.02 34.54 24.73 34.54 14.54 31.54 16.22 31.54 23.02"></polygon> <polygon class="cls-2" points="28.21 7.45 28.21 10.38 31.54 12.3 31.54 15.72 34.54 14.01 35.85 14.76 38.44 13.31 28.21 7.45"></polygon> <polygon class="cls-2" points="36.3 15.01 38.47 16.25 38.47 13.79 36.3 15.01"></polygon> </g> </g> </g> </svg> 